<svg width="19" height="19" viewBox="0 0 19 19" fill="none" xmlns="http://www.w3.org/2000/svg">
<path d="M8.3822 0.927052C8.68155 0.00574112 9.98496 0.00573993 10.2843 0.927051L11.8029 5.60081C11.9368 6.01284 12.3207 6.2918 12.754 6.2918H17.6682C18.637 6.2918 19.0397 7.53141 18.256 8.10081L14.2803 10.9894C13.9298 11.244 13.7831 11.6954 13.917 12.1074L15.4356 16.7812C15.735 17.7025 14.6805 18.4686 13.8968 17.8992L9.92104 15.0106C9.57055 14.756 9.09595 14.756 8.74547 15.0106L4.76973 17.8992C3.98602 18.4686 2.93153 17.7025 3.23089 16.7812L4.74948 12.1074C4.88336 11.6954 4.7367 11.244 4.38621 10.9894L0.410473 8.10081C-0.373241 7.53141 0.0295346 6.2918 0.998258 6.2918H5.91254C6.34577 6.2918 6.72972 6.01284 6.8636 5.60081L8.3822 0.927052Z" fill="#FFB31F"/>
</svg>
